<svg xmlns="http://www.w3.org/2000/svg" xml:space="preserve" data-id="lg_BJ6rWWgnssp9zzWft9" data-version="1" viewBox="633.5 -0.5 733 192"><g data-padding="20"><g transform="translate(10 2.61)scale(.97268)"><rect width="720.785" height="190.97" x="252.572" y="-400.485" fill="none" rx="0" ry="0" transform="translate(400.5 400.5)"/><path fill="#d0d0d0" d="m657.975 178.85-6.09-8.62q7.1-4.56 12.51-10.05t8.53-13.52q3.13-8.03 3.13-20.2V38.24h15.72v96.17q0 10.81-4.99 19.01-4.98 8.19-12.67 14.36t-16.14 11.07m25.52-140.61-.51 10.65-23.32-2.7.17-7.95Zm5.91 11.33-.17-11.33h15.89l1.01 5.41q-3.71 1.69-8.11 3.13-4.39 1.44-8.62 2.79m77.41 101.9q-9.8 0-19.09-3.54-9.3-3.55-16.82-10.74-7.52-7.18-11.91-17.99-4.4-10.82-4.4-25.35 0-17.75 6.68-31.02 6.67-13.26 18.17-20.61 11.49-7.36 26.02-7.36 10.48 0 19.86 3.89t16.82 11.49q7.43 7.61 11.66 18.76 4.22 11.16 4.22 25.52 0 14.54-4.31 25.27t-11.66 17.74q-7.35 7.02-16.48 10.48-9.12 3.46-18.76 3.46m3.05-11.99q3.04 0 6.25-.43 3.21-.42 6.76-1.26 7.94-5.07 12.84-16.48t4.9-25.94q0-9.3-2.19-18-2.2-8.71-6.76-15.63-4.57-6.93-11.58-11.07t-16.65-4.14q-3.71 0-7.77.67-4.06.68-8.45 2.2-4.56 3.55-8.03 10.05-3.46 6.51-5.41 14.79-1.94 8.28-1.94 17.24t2.2 17.58q2.2 8.61 6.76 15.46 4.56 6.84 11.74 10.9 7.19 4.06 17.33 4.06m95.82-45.98-13.86 1.35v-8.96h13.18q11.66 0 18.59-2.87t10.06-7.44q3.13-4.56 3.13-9.46 0-6.76-4.82-12.42t-12.25-6.85l-25.35 2.71-25.35-11.33q5.24-.33 10.81-.5 5.58-.17 11.24-.42 5.66-.26 11.24-.34 5.58-.09 10.82-.09 14.7 0 23.74 4.06 9.04 4.05 13.18 10.39t4.14 13.61q0 5.91-2.79 11.4-2.78 5.5-8.53 9.13t-15.04 4.14Zm-22.31 54.58h-15.88l-1.02-5.4q3.89-1.86 8.2-3.3t8.53-2.62Zm13.18 0h-15.71V38.57h15.71Zm18.59 0h-22.64l.5-11.99 20.45 1.69q9.64.67 15.97-1.95 6.34-2.62 9.38-7.43 3.05-4.82 3.05-10.23 0-5.58-3.22-10.9-3.21-5.32-9.63-8.79-6.42-3.46-15.88-3.46h-20.12l2.88-3.04 22.31-2.71q13.68-1.18 22.98 2.71 9.29 3.88 14.11 10.81t4.82 15.04q0 7.95-4.9 14.88-4.9 6.92-14.88 11.15-9.97 4.22-25.18 4.22m-30.42-109.85.34 9.13-16.22-1.01.17-8.12Zm103.25 109.85h-15.88l-1.02-5.4q3.89-1.86 8.2-3.3t8.53-2.62Zm25.35 0h-23.66l.51-10.64 23.32 2.7Zm70.31 0h-15.89l-1.01-5.4q3.88-1.86 8.19-3.3t8.54-2.62Zm29.4 0h-23.66l.51-10.64 23.32 2.7Zm-113.9 0h-13.35l3.88-109.85h20.45l-13.01 8.12 3.72 30.75Zm48.84-2.7-14.71 3.89-37.34-103.43 14.19-7.61 34.98 97.52Zm36.33-100.89-36.33 100.89-9.3-3.38 36.84-103.77Zm12.34 103.59h-15.21l-1.18-70.98 2.7-31.94-7.44-6.93h19.27Zm-96.84-109.85-.5 10.65-23.33-2.7.17-7.95Zm90.92 11.33-.16-11.33h15.88l1.02 5.41q-3.72 1.69-8.12 3.13-4.39 1.44-8.62 2.79m47.32 98.52h-13.52l44.45-107.65 9.63 4.23Zm89.41 0h-17.07l-43.1-109.34 13.35-4.56Zm-29.24-33.96h-49.18v-10.31h49.18Zm-66.42 33.96h-15.88l-1.02-5.4q3.89-1.86 8.2-3.3t8.53-2.62Zm27.72 0h-23.66l.5-10.64 23.33 2.7Zm55.6 0h-24.68l-1.01-5.4q3.89-1.86 8.2-3.3t8.53-2.62Zm20.62 0h-23.66l.5-10.64 23.33 2.7Zm58.48.01h-15.72V38.24h15.72Zm-14.7 0h-18.42l-1.02-5.4q3.89-1.86 9.47-3.3 5.57-1.44 9.8-2.62Zm33.8 0h-23.66l.5-10.64 23.33 2.7Zm-64.73-82.3h-9.13q-.67-3.89-1.09-8.03-.43-4.14-.6-8.02-.16-3.89-.16-7.19 0-3.29.16-5.32l13.52 7.61Zm37.86-18.25-45.8 1.69-2.88-12q9.3.34 19.1.51t19.69.25q9.89.09 19.77 0 9.89-.08 19.61-.25 9.71-.17 19.01-.51l-2.7 12Zm46.81 18.25h-9.13l-2.7-20.95 13.52-7.61q.17 2.03.17 5.32 0 3.3-.17 7.19-.17 3.88-.59 8.02t-1.1 8.03m25.52 82.3h-15.89l-1.01-5.4q3.89-1.86 8.19-3.3 4.31-1.44 8.54-2.62Zm62.87 0-12.68-6.76 5.75-24.16 8.95.67q.17 4.4-.08 10.14-.25 5.75-.76 11.07-.51 5.33-1.18 9.04m-61.52-109.85.34 9.13-16.23-1.01.17-8.12Zm59.83 27.89h-9.13l-2.7-20.28 13.52-7.61q.33 2.71.25 7.36-.08 4.64-.51 9.97-.42 5.32-1.43 10.56m-48 81.96h-15.72V38.24h15.72Zm38.7-62.69v14.7l-40.56-1.69v-9.97Zm10.99-47.16-2.88 13.02-50.87-3.55-12.67-9.47Zm0 109.85h-66.42l12.67-10.81 50.87-2.2Z"/></g><path fill="transparent" stroke="transparent" d="M634 0h732v191H634z"/></g></svg>